<svg width="32" height="32" viewBox="0 0 32 32" fill="none" xmlns="http://www.w3.org/2000/svg">
<path fill-rule="evenodd" clip-rule="evenodd" d="M23.6095 10.3567C24.1302 9.83601 24.1302 8.99179 23.6095 8.47109C23.0888 7.95039 22.2446 7.95039 21.7239 8.47109L16 14.1949L10.2761 8.47109C9.75544 7.95039 8.91122 7.95039 8.39052 8.47109C7.86983 8.99179 7.86983 9.83601 8.39052 10.3567L14.1144 16.0806L8.39052 21.8044C7.86983 22.3251 7.86983 23.1693 8.39052 23.69C8.91122 24.2107 9.75544 24.2107 10.2761 23.69L16 17.9662L21.7239 23.69C22.2446 24.2107 23.0888 24.2107 23.6095 23.69C24.1302 23.1693 24.1302 22.3251 23.6095 21.8044L17.8856 16.0806L23.6095 10.3567Z" fill="#BFBFBF"/>
</svg>
